<mxfile host="app.diagrams.net" agent="Mozilla/5.0 (Windows NT 10.0; Win64; x64) AppleWebKit/537.36 (KHTML, like Gecko) Chrome/122.0.0.0 Safari/537.36" version="27.0.9">
  <diagram name="Pagina-1" id="3BAeEwWrzgMpJLtvFLtv">
    <mxGraphModel dx="2211" dy="622" grid="1" gridSize="10" guides="1" tooltips="1" connect="1" arrows="1" fold="1" page="1" pageScale="1" pageWidth="1169" pageHeight="827" math="0" shadow="0">
      <root>
        <mxCell id="0" />
        <mxCell id="1" parent="0" />
        <mxCell id="l8RalJSKUeOPsh2uQrL3-1" value="&lt;font style=&quot;font-size: 24px;&quot;&gt;&lt;b&gt;Processo di assunzione del personale&lt;/b&gt;&lt;/font&gt;" style="text;whiteSpace=wrap;html=1;fillColor=#fff2cc;strokeColor=#d6b656;align=center;" vertex="1" parent="1">
          <mxGeometry x="-824" y="40" width="460" height="40" as="geometry" />
        </mxCell>
        <mxCell id="l8RalJSKUeOPsh2uQrL3-2" value="" style="whiteSpace=wrap;html=1;aspect=fixed;" vertex="1" parent="1">
          <mxGeometry x="-764" y="170" width="240" height="240" as="geometry" />
        </mxCell>
        <mxCell id="l8RalJSKUeOPsh2uQrL3-3" value="" style="shape=table;startSize=0;container=1;collapsible=0;childLayout=tableLayout;fontSize=11;fillColor=none;strokeColor=none;fontStyle=1" vertex="1" parent="1">
          <mxGeometry x="-731.5" y="185" width="150" height="140" as="geometry" />
        </mxCell>
        <mxCell id="l8RalJSKUeOPsh2uQrL3-4" value="" style="shape=tableRow;horizontal=0;startSize=0;swimlaneHead=0;swimlaneBody=0;strokeColor=inherit;top=0;left=0;bottom=0;right=0;collapsible=0;dropTarget=0;fillColor=none;points=[[0,0.5],[1,0.5]];portConstraint=eastwest;fontSize=16;" vertex="1" parent="l8RalJSKUeOPsh2uQrL3-3">
          <mxGeometry width="150" height="35" as="geometry" />
        </mxCell>
        <mxCell id="l8RalJSKUeOPsh2uQrL3-5" value="ID CANDIDATO" style="shape=partialRectangle;html=1;whiteSpace=wrap;connectable=0;strokeColor=#82b366;overflow=hidden;fillColor=#d5e8d4;top=0;left=0;bottom=0;right=0;pointerEvents=1;fontSize=12;align=left;spacingLeft=5;fontStyle=1" vertex="1" parent="l8RalJSKUeOPsh2uQrL3-4">
          <mxGeometry width="150" height="35" as="geometry">
            <mxRectangle width="150" height="35" as="alternateBounds" />
          </mxGeometry>
        </mxCell>
        <mxCell id="l8RalJSKUeOPsh2uQrL3-6" value="" style="shape=tableRow;horizontal=0;startSize=0;swimlaneHead=0;swimlaneBody=0;strokeColor=inherit;top=0;left=0;bottom=0;right=0;collapsible=0;dropTarget=0;fillColor=none;points=[[0,0.5],[1,0.5]];portConstraint=eastwest;fontSize=16;" vertex="1" parent="l8RalJSKUeOPsh2uQrL3-3">
          <mxGeometry y="35" width="150" height="35" as="geometry" />
        </mxCell>
        <mxCell id="l8RalJSKUeOPsh2uQrL3-7" value="NOME" style="shape=partialRectangle;html=1;whiteSpace=wrap;connectable=0;strokeColor=#6c8ebf;overflow=hidden;fillColor=#dae8fc;top=0;left=0;bottom=0;right=0;pointerEvents=1;fontSize=12;align=left;spacingLeft=5;" vertex="1" parent="l8RalJSKUeOPsh2uQrL3-6">
          <mxGeometry width="150" height="35" as="geometry">
            <mxRectangle width="150" height="35" as="alternateBounds" />
          </mxGeometry>
        </mxCell>
        <mxCell id="l8RalJSKUeOPsh2uQrL3-8" value="" style="shape=tableRow;horizontal=0;startSize=0;swimlaneHead=0;swimlaneBody=0;strokeColor=inherit;top=0;left=0;bottom=0;right=0;collapsible=0;dropTarget=0;fillColor=none;points=[[0,0.5],[1,0.5]];portConstraint=eastwest;fontSize=16;" vertex="1" parent="l8RalJSKUeOPsh2uQrL3-3">
          <mxGeometry y="70" width="150" height="35" as="geometry" />
        </mxCell>
        <mxCell id="l8RalJSKUeOPsh2uQrL3-9" value="COGNOME" style="shape=partialRectangle;html=1;whiteSpace=wrap;connectable=0;strokeColor=#6c8ebf;overflow=hidden;fillColor=#dae8fc;top=0;left=0;bottom=0;right=0;pointerEvents=1;fontSize=12;align=left;spacingLeft=5;" vertex="1" parent="l8RalJSKUeOPsh2uQrL3-8">
          <mxGeometry width="150" height="35" as="geometry">
            <mxRectangle width="150" height="35" as="alternateBounds" />
          </mxGeometry>
        </mxCell>
        <mxCell id="l8RalJSKUeOPsh2uQrL3-10" style="shape=tableRow;horizontal=0;startSize=0;swimlaneHead=0;swimlaneBody=0;strokeColor=inherit;top=0;left=0;bottom=0;right=0;collapsible=0;dropTarget=0;fillColor=none;points=[[0,0.5],[1,0.5]];portConstraint=eastwest;fontSize=16;" vertex="1" parent="l8RalJSKUeOPsh2uQrL3-3">
          <mxGeometry y="105" width="150" height="35" as="geometry" />
        </mxCell>
        <mxCell id="l8RalJSKUeOPsh2uQrL3-11" value="EMAIL" style="shape=partialRectangle;html=1;whiteSpace=wrap;connectable=0;strokeColor=#6c8ebf;overflow=hidden;fillColor=#dae8fc;top=0;left=0;bottom=0;right=0;pointerEvents=1;fontSize=12;align=left;spacingLeft=5;" vertex="1" parent="l8RalJSKUeOPsh2uQrL3-10">
          <mxGeometry width="150" height="35" as="geometry">
            <mxRectangle width="150" height="35" as="alternateBounds" />
          </mxGeometry>
        </mxCell>
        <mxCell id="l8RalJSKUeOPsh2uQrL3-12" value="TELEFONO" style="shape=partialRectangle;html=1;whiteSpace=wrap;connectable=0;strokeColor=#6c8ebf;overflow=hidden;fillColor=#dae8fc;top=0;left=0;bottom=0;right=0;pointerEvents=1;fontSize=12;align=left;spacingLeft=5;" vertex="1" parent="1">
          <mxGeometry x="-731.5" y="325" width="150" height="35" as="geometry">
            <mxRectangle width="150" height="35" as="alternateBounds" />
          </mxGeometry>
        </mxCell>
        <mxCell id="l8RalJSKUeOPsh2uQrL3-13" value="&lt;b&gt;CANDIDATO&lt;/b&gt;" style="rounded=0;whiteSpace=wrap;html=1;verticalAlign=bottom;" vertex="1" parent="1">
          <mxGeometry x="-764" y="140" width="120" height="20" as="geometry" />
        </mxCell>
        <mxCell id="l8RalJSKUeOPsh2uQrL3-14" value="&lt;b&gt;POSIZIONE LAVORATIVA&lt;/b&gt;" style="rounded=0;whiteSpace=wrap;html=1;verticalAlign=bottom;" vertex="1" parent="1">
          <mxGeometry x="-254" y="480" width="160" height="20" as="geometry" />
        </mxCell>
        <mxCell id="l8RalJSKUeOPsh2uQrL3-15" value="" style="whiteSpace=wrap;html=1;aspect=fixed;" vertex="1" parent="1">
          <mxGeometry x="-254" y="510" width="200" height="200" as="geometry" />
        </mxCell>
        <mxCell id="l8RalJSKUeOPsh2uQrL3-16" value="" style="shape=table;startSize=0;container=1;collapsible=0;childLayout=tableLayout;fontSize=11;fillColor=none;strokeColor=none;fontStyle=1" vertex="1" parent="1">
          <mxGeometry x="-239" y="540" width="170" height="140" as="geometry" />
        </mxCell>
        <mxCell id="l8RalJSKUeOPsh2uQrL3-17" value="" style="shape=tableRow;horizontal=0;startSize=0;swimlaneHead=0;swimlaneBody=0;strokeColor=inherit;top=0;left=0;bottom=0;right=0;collapsible=0;dropTarget=0;fillColor=none;points=[[0,0.5],[1,0.5]];portConstraint=eastwest;fontSize=16;" vertex="1" parent="l8RalJSKUeOPsh2uQrL3-16">
          <mxGeometry width="170" height="35" as="geometry" />
        </mxCell>
        <mxCell id="l8RalJSKUeOPsh2uQrL3-18" value="ID POSIZIONE" style="shape=partialRectangle;html=1;whiteSpace=wrap;connectable=0;strokeColor=#82b366;overflow=hidden;fillColor=#d5e8d4;top=0;left=0;bottom=0;right=0;pointerEvents=1;fontSize=12;align=left;spacingLeft=5;fontStyle=1" vertex="1" parent="l8RalJSKUeOPsh2uQrL3-17">
          <mxGeometry width="170" height="35" as="geometry">
            <mxRectangle width="170" height="35" as="alternateBounds" />
          </mxGeometry>
        </mxCell>
        <mxCell id="l8RalJSKUeOPsh2uQrL3-19" value="" style="shape=tableRow;horizontal=0;startSize=0;swimlaneHead=0;swimlaneBody=0;strokeColor=inherit;top=0;left=0;bottom=0;right=0;collapsible=0;dropTarget=0;fillColor=none;points=[[0,0.5],[1,0.5]];portConstraint=eastwest;fontSize=16;" vertex="1" parent="l8RalJSKUeOPsh2uQrL3-16">
          <mxGeometry y="35" width="170" height="35" as="geometry" />
        </mxCell>
        <mxCell id="l8RalJSKUeOPsh2uQrL3-20" value="TITOLO&lt;span style=&quot;white-space: pre;&quot;&gt;&#x9;&lt;/span&gt;" style="shape=partialRectangle;html=1;whiteSpace=wrap;connectable=0;strokeColor=#6c8ebf;overflow=hidden;fillColor=#dae8fc;top=0;left=0;bottom=0;right=0;pointerEvents=1;fontSize=12;align=left;spacingLeft=5;" vertex="1" parent="l8RalJSKUeOPsh2uQrL3-19">
          <mxGeometry width="170" height="35" as="geometry">
            <mxRectangle width="170" height="35" as="alternateBounds" />
          </mxGeometry>
        </mxCell>
        <mxCell id="l8RalJSKUeOPsh2uQrL3-21" value="" style="shape=tableRow;horizontal=0;startSize=0;swimlaneHead=0;swimlaneBody=0;strokeColor=inherit;top=0;left=0;bottom=0;right=0;collapsible=0;dropTarget=0;fillColor=none;points=[[0,0.5],[1,0.5]];portConstraint=eastwest;fontSize=16;" vertex="1" parent="l8RalJSKUeOPsh2uQrL3-16">
          <mxGeometry y="70" width="170" height="35" as="geometry" />
        </mxCell>
        <mxCell id="l8RalJSKUeOPsh2uQrL3-22" value="DIPARTIMENTO" style="shape=partialRectangle;html=1;whiteSpace=wrap;connectable=0;strokeColor=#6c8ebf;overflow=hidden;fillColor=#dae8fc;top=0;left=0;bottom=0;right=0;pointerEvents=1;fontSize=12;align=left;spacingLeft=5;" vertex="1" parent="l8RalJSKUeOPsh2uQrL3-21">
          <mxGeometry width="170" height="35" as="geometry">
            <mxRectangle width="170" height="35" as="alternateBounds" />
          </mxGeometry>
        </mxCell>
        <mxCell id="l8RalJSKUeOPsh2uQrL3-23" style="shape=tableRow;horizontal=0;startSize=0;swimlaneHead=0;swimlaneBody=0;strokeColor=inherit;top=0;left=0;bottom=0;right=0;collapsible=0;dropTarget=0;fillColor=none;points=[[0,0.5],[1,0.5]];portConstraint=eastwest;fontSize=16;" vertex="1" parent="l8RalJSKUeOPsh2uQrL3-16">
          <mxGeometry y="105" width="170" height="35" as="geometry" />
        </mxCell>
        <mxCell id="l8RalJSKUeOPsh2uQrL3-24" value="DATA DI PUBBLICAZIONE" style="shape=partialRectangle;html=1;whiteSpace=wrap;connectable=0;strokeColor=#6c8ebf;overflow=hidden;fillColor=#dae8fc;top=0;left=0;bottom=0;right=0;pointerEvents=1;fontSize=12;align=left;spacingLeft=5;" vertex="1" parent="l8RalJSKUeOPsh2uQrL3-23">
          <mxGeometry width="170" height="35" as="geometry">
            <mxRectangle width="170" height="35" as="alternateBounds" />
          </mxGeometry>
        </mxCell>
        <mxCell id="l8RalJSKUeOPsh2uQrL3-25" value="CURRICULUM" style="shape=partialRectangle;html=1;whiteSpace=wrap;connectable=0;strokeColor=#6c8ebf;overflow=hidden;fillColor=#dae8fc;top=0;left=0;bottom=0;right=0;pointerEvents=1;fontSize=12;align=left;spacingLeft=5;" vertex="1" parent="1">
          <mxGeometry x="-731.5" y="360" width="150" height="35" as="geometry">
            <mxRectangle width="150" height="35" as="alternateBounds" />
          </mxGeometry>
        </mxCell>
        <mxCell id="l8RalJSKUeOPsh2uQrL3-26" value="" style="whiteSpace=wrap;html=1;aspect=fixed;" vertex="1" parent="1">
          <mxGeometry x="-766.5" y="510" width="210" height="210" as="geometry" />
        </mxCell>
        <mxCell id="l8RalJSKUeOPsh2uQrL3-27" value="&lt;b&gt;COLLOQUIO&lt;/b&gt;" style="rounded=0;whiteSpace=wrap;html=1;align=center;labelPosition=center;verticalLabelPosition=middle;verticalAlign=bottom;" vertex="1" parent="1">
          <mxGeometry x="-766.5" y="480" width="120" height="20" as="geometry" />
        </mxCell>
        <mxCell id="l8RalJSKUeOPsh2uQrL3-28" value="" style="shape=table;startSize=0;container=1;collapsible=0;childLayout=tableLayout;fontSize=11;fillColor=none;strokeColor=none;fontStyle=1" vertex="1" parent="1">
          <mxGeometry x="-746.5" y="527.5" width="150" height="140" as="geometry" />
        </mxCell>
        <mxCell id="l8RalJSKUeOPsh2uQrL3-29" value="" style="shape=tableRow;horizontal=0;startSize=0;swimlaneHead=0;swimlaneBody=0;strokeColor=inherit;top=0;left=0;bottom=0;right=0;collapsible=0;dropTarget=0;fillColor=none;points=[[0,0.5],[1,0.5]];portConstraint=eastwest;fontSize=16;" vertex="1" parent="l8RalJSKUeOPsh2uQrL3-28">
          <mxGeometry width="150" height="35" as="geometry" />
        </mxCell>
        <mxCell id="l8RalJSKUeOPsh2uQrL3-30" value="ID COLLOQUIO" style="shape=partialRectangle;html=1;whiteSpace=wrap;connectable=0;strokeColor=#82b366;overflow=hidden;fillColor=#d5e8d4;top=0;left=0;bottom=0;right=0;pointerEvents=1;fontSize=12;align=left;spacingLeft=5;fontStyle=1" vertex="1" parent="l8RalJSKUeOPsh2uQrL3-29">
          <mxGeometry width="150" height="35" as="geometry">
            <mxRectangle width="150" height="35" as="alternateBounds" />
          </mxGeometry>
        </mxCell>
        <mxCell id="l8RalJSKUeOPsh2uQrL3-31" value="" style="shape=tableRow;horizontal=0;startSize=0;swimlaneHead=0;swimlaneBody=0;strokeColor=inherit;top=0;left=0;bottom=0;right=0;collapsible=0;dropTarget=0;fillColor=none;points=[[0,0.5],[1,0.5]];portConstraint=eastwest;fontSize=16;" vertex="1" parent="l8RalJSKUeOPsh2uQrL3-28">
          <mxGeometry y="35" width="150" height="35" as="geometry" />
        </mxCell>
        <mxCell id="l8RalJSKUeOPsh2uQrL3-32" value="" style="shape=partialRectangle;html=1;whiteSpace=wrap;connectable=0;strokeColor=#6c8ebf;overflow=hidden;fillColor=#dae8fc;top=0;left=0;bottom=0;right=0;pointerEvents=1;fontSize=12;align=left;spacingLeft=5;" vertex="1" parent="l8RalJSKUeOPsh2uQrL3-31">
          <mxGeometry width="150" height="35" as="geometry">
            <mxRectangle width="150" height="35" as="alternateBounds" />
          </mxGeometry>
        </mxCell>
        <mxCell id="l8RalJSKUeOPsh2uQrL3-33" value="" style="shape=tableRow;horizontal=0;startSize=0;swimlaneHead=0;swimlaneBody=0;strokeColor=inherit;top=0;left=0;bottom=0;right=0;collapsible=0;dropTarget=0;fillColor=none;points=[[0,0.5],[1,0.5]];portConstraint=eastwest;fontSize=16;" vertex="1" parent="l8RalJSKUeOPsh2uQrL3-28">
          <mxGeometry y="70" width="150" height="35" as="geometry" />
        </mxCell>
        <mxCell id="l8RalJSKUeOPsh2uQrL3-34" value="" style="shape=partialRectangle;html=1;whiteSpace=wrap;connectable=0;strokeColor=#6c8ebf;overflow=hidden;fillColor=#dae8fc;top=0;left=0;bottom=0;right=0;pointerEvents=1;fontSize=12;align=left;spacingLeft=5;" vertex="1" parent="l8RalJSKUeOPsh2uQrL3-33">
          <mxGeometry width="150" height="35" as="geometry">
            <mxRectangle width="150" height="35" as="alternateBounds" />
          </mxGeometry>
        </mxCell>
        <mxCell id="l8RalJSKUeOPsh2uQrL3-35" style="shape=tableRow;horizontal=0;startSize=0;swimlaneHead=0;swimlaneBody=0;strokeColor=inherit;top=0;left=0;bottom=0;right=0;collapsible=0;dropTarget=0;fillColor=none;points=[[0,0.5],[1,0.5]];portConstraint=eastwest;fontSize=16;" vertex="1" parent="l8RalJSKUeOPsh2uQrL3-28">
          <mxGeometry y="105" width="150" height="35" as="geometry" />
        </mxCell>
        <mxCell id="l8RalJSKUeOPsh2uQrL3-36" value="" style="shape=partialRectangle;html=1;whiteSpace=wrap;connectable=0;strokeColor=#d79b00;overflow=hidden;fillColor=#ffe6cc;top=0;left=0;bottom=0;right=0;pointerEvents=1;fontSize=12;align=left;spacingLeft=5;" vertex="1" parent="l8RalJSKUeOPsh2uQrL3-35">
          <mxGeometry width="150" height="35" as="geometry">
            <mxRectangle width="150" height="35" as="alternateBounds" />
          </mxGeometry>
        </mxCell>
        <mxCell id="l8RalJSKUeOPsh2uQrL3-37" value="(PK)" style="shape=partialRectangle;html=1;whiteSpace=wrap;connectable=0;strokeColor=light-dark(#000000, #446e2c);overflow=hidden;fillColor=#d5e8d4;top=0;left=0;bottom=0;right=0;pointerEvents=1;fontSize=12;align=left;spacingLeft=5;fontStyle=1;labelBorderColor=none;" vertex="1" parent="1">
          <mxGeometry x="-606.5" y="185" width="50" height="35" as="geometry">
            <mxRectangle width="150" height="35" as="alternateBounds" />
          </mxGeometry>
        </mxCell>
        <mxCell id="l8RalJSKUeOPsh2uQrL3-38" value="(PK)" style="shape=partialRectangle;html=1;whiteSpace=wrap;connectable=0;strokeColor=light-dark(#000000, #446e2c);overflow=hidden;fillColor=#d5e8d4;top=0;left=0;bottom=0;right=0;pointerEvents=1;fontSize=12;align=left;spacingLeft=5;fontStyle=1;labelBorderColor=none;" vertex="1" parent="1">
          <mxGeometry x="-119" y="540" width="50" height="35" as="geometry">
            <mxRectangle width="150" height="35" as="alternateBounds" />
          </mxGeometry>
        </mxCell>
        <mxCell id="l8RalJSKUeOPsh2uQrL3-39" value="(PK)" style="shape=partialRectangle;html=1;whiteSpace=wrap;connectable=0;strokeColor=light-dark(#000000, #446e2c);overflow=hidden;fillColor=#d5e8d4;top=0;left=0;bottom=0;right=0;pointerEvents=1;fontSize=12;align=left;spacingLeft=5;fontStyle=1;labelBorderColor=none;" vertex="1" parent="1">
          <mxGeometry x="-626.5" y="527" width="50" height="35" as="geometry">
            <mxRectangle width="150" height="35" as="alternateBounds" />
          </mxGeometry>
        </mxCell>
        <mxCell id="l8RalJSKUeOPsh2uQrL3-40" value="&lt;b&gt;ASSUNZIONE&lt;/b&gt;" style="rounded=0;whiteSpace=wrap;html=1;verticalAlign=bottom;" vertex="1" parent="1">
          <mxGeometry x="-254" y="140" width="120" height="20" as="geometry" />
        </mxCell>
        <mxCell id="l8RalJSKUeOPsh2uQrL3-41" value="" style="whiteSpace=wrap;html=1;aspect=fixed;" vertex="1" parent="1">
          <mxGeometry x="-254" y="170" width="210" height="210" as="geometry" />
        </mxCell>
        <mxCell id="l8RalJSKUeOPsh2uQrL3-42" value="" style="shape=table;startSize=0;container=1;collapsible=0;childLayout=tableLayout;fontSize=11;fillColor=none;strokeColor=none;fontStyle=1" vertex="1" parent="1">
          <mxGeometry x="-234" y="187.5" width="150" height="140" as="geometry" />
        </mxCell>
        <mxCell id="l8RalJSKUeOPsh2uQrL3-43" value="" style="shape=tableRow;horizontal=0;startSize=0;swimlaneHead=0;swimlaneBody=0;strokeColor=inherit;top=0;left=0;bottom=0;right=0;collapsible=0;dropTarget=0;fillColor=none;points=[[0,0.5],[1,0.5]];portConstraint=eastwest;fontSize=16;" vertex="1" parent="l8RalJSKUeOPsh2uQrL3-42">
          <mxGeometry width="150" height="35" as="geometry" />
        </mxCell>
        <mxCell id="l8RalJSKUeOPsh2uQrL3-44" value="ID ASSUNZIONE" style="shape=partialRectangle;html=1;whiteSpace=wrap;connectable=0;strokeColor=#82b366;overflow=hidden;fillColor=#d5e8d4;top=0;left=0;bottom=0;right=0;pointerEvents=1;fontSize=12;align=left;spacingLeft=5;fontStyle=1" vertex="1" parent="l8RalJSKUeOPsh2uQrL3-43">
          <mxGeometry width="150" height="35" as="geometry">
            <mxRectangle width="150" height="35" as="alternateBounds" />
          </mxGeometry>
        </mxCell>
        <mxCell id="l8RalJSKUeOPsh2uQrL3-45" value="" style="shape=tableRow;horizontal=0;startSize=0;swimlaneHead=0;swimlaneBody=0;strokeColor=inherit;top=0;left=0;bottom=0;right=0;collapsible=0;dropTarget=0;fillColor=none;points=[[0,0.5],[1,0.5]];portConstraint=eastwest;fontSize=16;" vertex="1" parent="l8RalJSKUeOPsh2uQrL3-42">
          <mxGeometry y="35" width="150" height="35" as="geometry" />
        </mxCell>
        <mxCell id="l8RalJSKUeOPsh2uQrL3-46" value="" style="shape=partialRectangle;html=1;whiteSpace=wrap;connectable=0;strokeColor=#6c8ebf;overflow=hidden;fillColor=#dae8fc;top=0;left=0;bottom=0;right=0;pointerEvents=1;fontSize=12;align=left;spacingLeft=5;" vertex="1" parent="l8RalJSKUeOPsh2uQrL3-45">
          <mxGeometry width="150" height="35" as="geometry">
            <mxRectangle width="150" height="35" as="alternateBounds" />
          </mxGeometry>
        </mxCell>
        <mxCell id="l8RalJSKUeOPsh2uQrL3-47" value="" style="shape=tableRow;horizontal=0;startSize=0;swimlaneHead=0;swimlaneBody=0;strokeColor=inherit;top=0;left=0;bottom=0;right=0;collapsible=0;dropTarget=0;fillColor=none;points=[[0,0.5],[1,0.5]];portConstraint=eastwest;fontSize=16;" vertex="1" parent="l8RalJSKUeOPsh2uQrL3-42">
          <mxGeometry y="70" width="150" height="35" as="geometry" />
        </mxCell>
        <mxCell id="l8RalJSKUeOPsh2uQrL3-48" value="" style="shape=partialRectangle;html=1;whiteSpace=wrap;connectable=0;strokeColor=#6c8ebf;overflow=hidden;fillColor=#dae8fc;top=0;left=0;bottom=0;right=0;pointerEvents=1;fontSize=12;align=left;spacingLeft=5;" vertex="1" parent="l8RalJSKUeOPsh2uQrL3-47">
          <mxGeometry width="150" height="35" as="geometry">
            <mxRectangle width="150" height="35" as="alternateBounds" />
          </mxGeometry>
        </mxCell>
        <mxCell id="l8RalJSKUeOPsh2uQrL3-49" style="shape=tableRow;horizontal=0;startSize=0;swimlaneHead=0;swimlaneBody=0;strokeColor=inherit;top=0;left=0;bottom=0;right=0;collapsible=0;dropTarget=0;fillColor=none;points=[[0,0.5],[1,0.5]];portConstraint=eastwest;fontSize=16;" vertex="1" parent="l8RalJSKUeOPsh2uQrL3-42">
          <mxGeometry y="105" width="150" height="35" as="geometry" />
        </mxCell>
        <mxCell id="l8RalJSKUeOPsh2uQrL3-50" value="" style="shape=partialRectangle;html=1;whiteSpace=wrap;connectable=0;strokeColor=#d79b00;overflow=hidden;fillColor=#ffe6cc;top=0;left=0;bottom=0;right=0;pointerEvents=1;fontSize=12;align=left;spacingLeft=5;" vertex="1" parent="l8RalJSKUeOPsh2uQrL3-49">
          <mxGeometry width="150" height="35" as="geometry">
            <mxRectangle width="150" height="35" as="alternateBounds" />
          </mxGeometry>
        </mxCell>
        <mxCell id="l8RalJSKUeOPsh2uQrL3-51" value="(PK)" style="shape=partialRectangle;html=1;whiteSpace=wrap;connectable=0;strokeColor=light-dark(#000000, #446e2c);overflow=hidden;fillColor=#d5e8d4;top=0;left=0;bottom=0;right=0;pointerEvents=1;fontSize=12;align=left;spacingLeft=5;fontStyle=1;labelBorderColor=none;" vertex="1" parent="1">
          <mxGeometry x="-114" y="187.5" width="50" height="35" as="geometry">
            <mxRectangle width="150" height="35" as="alternateBounds" />
          </mxGeometry>
        </mxCell>
        <mxCell id="l8RalJSKUeOPsh2uQrL3-52" value="&lt;b&gt;DIPENDENTE&lt;/b&gt;" style="rounded=0;whiteSpace=wrap;html=1;verticalAlign=bottom;" vertex="1" parent="1">
          <mxGeometry x="-1154" y="140" width="120" height="20" as="geometry" />
        </mxCell>
        <mxCell id="l8RalJSKUeOPsh2uQrL3-53" value="" style="whiteSpace=wrap;html=1;aspect=fixed;" vertex="1" parent="1">
          <mxGeometry x="-1154" y="170" width="200" height="200" as="geometry" />
        </mxCell>
        <mxCell id="l8RalJSKUeOPsh2uQrL3-54" value="" style="shape=table;startSize=0;container=1;collapsible=0;childLayout=tableLayout;fontSize=11;fillColor=none;strokeColor=none;fontStyle=1" vertex="1" parent="1">
          <mxGeometry x="-1134" y="200" width="150" height="140" as="geometry" />
        </mxCell>
        <mxCell id="l8RalJSKUeOPsh2uQrL3-55" value="" style="shape=tableRow;horizontal=0;startSize=0;swimlaneHead=0;swimlaneBody=0;strokeColor=inherit;top=0;left=0;bottom=0;right=0;collapsible=0;dropTarget=0;fillColor=none;points=[[0,0.5],[1,0.5]];portConstraint=eastwest;fontSize=16;" vertex="1" parent="l8RalJSKUeOPsh2uQrL3-54">
          <mxGeometry width="150" height="35" as="geometry" />
        </mxCell>
        <mxCell id="l8RalJSKUeOPsh2uQrL3-56" value="ID DIPENDENTE" style="shape=partialRectangle;html=1;whiteSpace=wrap;connectable=0;strokeColor=#82b366;overflow=hidden;fillColor=#d5e8d4;top=0;left=0;bottom=0;right=0;pointerEvents=1;fontSize=12;align=left;spacingLeft=5;fontStyle=1" vertex="1" parent="l8RalJSKUeOPsh2uQrL3-55">
          <mxGeometry width="150" height="35" as="geometry">
            <mxRectangle width="150" height="35" as="alternateBounds" />
          </mxGeometry>
        </mxCell>
        <mxCell id="l8RalJSKUeOPsh2uQrL3-57" value="" style="shape=tableRow;horizontal=0;startSize=0;swimlaneHead=0;swimlaneBody=0;strokeColor=inherit;top=0;left=0;bottom=0;right=0;collapsible=0;dropTarget=0;fillColor=none;points=[[0,0.5],[1,0.5]];portConstraint=eastwest;fontSize=16;" vertex="1" parent="l8RalJSKUeOPsh2uQrL3-54">
          <mxGeometry y="35" width="150" height="35" as="geometry" />
        </mxCell>
        <mxCell id="l8RalJSKUeOPsh2uQrL3-58" value="" style="shape=partialRectangle;html=1;whiteSpace=wrap;connectable=0;strokeColor=#6c8ebf;overflow=hidden;fillColor=#dae8fc;top=0;left=0;bottom=0;right=0;pointerEvents=1;fontSize=12;align=left;spacingLeft=5;" vertex="1" parent="l8RalJSKUeOPsh2uQrL3-57">
          <mxGeometry width="150" height="35" as="geometry">
            <mxRectangle width="150" height="35" as="alternateBounds" />
          </mxGeometry>
        </mxCell>
        <mxCell id="l8RalJSKUeOPsh2uQrL3-59" value="" style="shape=tableRow;horizontal=0;startSize=0;swimlaneHead=0;swimlaneBody=0;strokeColor=inherit;top=0;left=0;bottom=0;right=0;collapsible=0;dropTarget=0;fillColor=none;points=[[0,0.5],[1,0.5]];portConstraint=eastwest;fontSize=16;" vertex="1" parent="l8RalJSKUeOPsh2uQrL3-54">
          <mxGeometry y="70" width="150" height="35" as="geometry" />
        </mxCell>
        <mxCell id="l8RalJSKUeOPsh2uQrL3-60" value="" style="shape=partialRectangle;html=1;whiteSpace=wrap;connectable=0;strokeColor=#6c8ebf;overflow=hidden;fillColor=#dae8fc;top=0;left=0;bottom=0;right=0;pointerEvents=1;fontSize=12;align=left;spacingLeft=5;" vertex="1" parent="l8RalJSKUeOPsh2uQrL3-59">
          <mxGeometry width="150" height="35" as="geometry">
            <mxRectangle width="150" height="35" as="alternateBounds" />
          </mxGeometry>
        </mxCell>
        <mxCell id="l8RalJSKUeOPsh2uQrL3-61" style="shape=tableRow;horizontal=0;startSize=0;swimlaneHead=0;swimlaneBody=0;strokeColor=inherit;top=0;left=0;bottom=0;right=0;collapsible=0;dropTarget=0;fillColor=none;points=[[0,0.5],[1,0.5]];portConstraint=eastwest;fontSize=16;" vertex="1" parent="l8RalJSKUeOPsh2uQrL3-54">
          <mxGeometry y="105" width="150" height="35" as="geometry" />
        </mxCell>
        <mxCell id="l8RalJSKUeOPsh2uQrL3-62" value="" style="shape=partialRectangle;html=1;whiteSpace=wrap;connectable=0;strokeColor=#d79b00;overflow=hidden;fillColor=#ffe6cc;top=0;left=0;bottom=0;right=0;pointerEvents=1;fontSize=12;align=left;spacingLeft=5;" vertex="1" parent="l8RalJSKUeOPsh2uQrL3-61">
          <mxGeometry width="150" height="35" as="geometry">
            <mxRectangle width="150" height="35" as="alternateBounds" />
          </mxGeometry>
        </mxCell>
        <mxCell id="l8RalJSKUeOPsh2uQrL3-63" value="(PK)" style="shape=partialRectangle;html=1;whiteSpace=wrap;connectable=0;strokeColor=light-dark(#000000, #446e2c);overflow=hidden;fillColor=#d5e8d4;top=0;left=0;bottom=0;right=0;pointerEvents=1;fontSize=12;align=left;spacingLeft=5;fontStyle=1;labelBorderColor=none;" vertex="1" parent="1">
          <mxGeometry x="-1014" y="200" width="50" height="35" as="geometry">
            <mxRectangle width="150" height="35" as="alternateBounds" />
          </mxGeometry>
        </mxCell>
        <mxCell id="l8RalJSKUeOPsh2uQrL3-64" value="" style="edgeStyle=entityRelationEdgeStyle;fontSize=12;html=1;endArrow=ERzeroToMany;endFill=1;rounded=0;entryX=0.984;entryY=0.324;entryDx=0;entryDy=0;entryPerimeter=0;" edge="1" parent="1" target="l8RalJSKUeOPsh2uQrL3-26">
          <mxGeometry width="100" height="100" relative="1" as="geometry">
            <mxPoint x="-524" y="210" as="sourcePoint" />
            <mxPoint x="-424" y="110" as="targetPoint" />
            <Array as="points">
              <mxPoint x="-454" y="240" />
              <mxPoint x="-554" y="20" />
            </Array>
          </mxGeometry>
        </mxCell>
        <mxCell id="l8RalJSKUeOPsh2uQrL3-65" value="" style="edgeStyle=entityRelationEdgeStyle;fontSize=12;html=1;endArrow=ERoneToMany;rounded=0;entryX=1;entryY=0.5;entryDx=0;entryDy=0;exitX=0;exitY=0.25;exitDx=0;exitDy=0;" edge="1" parent="1" source="l8RalJSKUeOPsh2uQrL3-15" target="l8RalJSKUeOPsh2uQrL3-26">
          <mxGeometry width="100" height="100" relative="1" as="geometry">
            <mxPoint x="-354" y="220" as="sourcePoint" />
            <mxPoint x="-300" y="200" as="targetPoint" />
            <Array as="points">
              <mxPoint x="-234" y="960" />
              <mxPoint x="-474" y="410" />
              <mxPoint x="-354" y="550" />
              <mxPoint x="-334" y="470" />
              <mxPoint x="-394" y="460" />
              <mxPoint x="-244" y="210" />
              <mxPoint x="-274" y="210" />
            </Array>
          </mxGeometry>
        </mxCell>
        <mxCell id="l8RalJSKUeOPsh2uQrL3-66" value="" style="edgeStyle=entityRelationEdgeStyle;fontSize=12;html=1;endArrow=ERmandOne;startArrow=ERmandOne;rounded=0;entryX=0.018;entryY=0.312;entryDx=0;entryDy=0;entryPerimeter=0;" edge="1" parent="1" target="l8RalJSKUeOPsh2uQrL3-41">
          <mxGeometry width="100" height="100" relative="1" as="geometry">
            <mxPoint x="-524" y="200" as="sourcePoint" />
            <mxPoint x="-299.0399999999995" y="259.02" as="targetPoint" />
            <Array as="points">
              <mxPoint x="-504" y="276.52" />
              <mxPoint x="-454" y="96.51999999999998" />
              <mxPoint x="-504" y="306.52" />
              <mxPoint x="-574" y="-153.48000000000002" />
              <mxPoint x="-544" y="-123.48000000000002" />
              <mxPoint x="-384" y="110" />
              <mxPoint x="-494" y="-160.00000000000003" />
            </Array>
          </mxGeometry>
        </mxCell>
        <mxCell id="l8RalJSKUeOPsh2uQrL3-67" value="" style="edgeStyle=entityRelationEdgeStyle;fontSize=12;html=1;endArrow=ERmandOne;startArrow=ERmandOne;rounded=0;exitX=0.999;exitY=0.42;exitDx=0;exitDy=0;exitPerimeter=0;" edge="1" parent="1" source="l8RalJSKUeOPsh2uQrL3-53">
          <mxGeometry width="100" height="100" relative="1" as="geometry">
            <mxPoint x="-866.5" y="300" as="sourcePoint" />
            <mxPoint x="-766.5" y="200" as="targetPoint" />
            <Array as="points">
              <mxPoint x="-930" y="270" />
              <mxPoint x="-940" y="280" />
              <mxPoint x="-800" y="300" />
              <mxPoint x="-900" y="310" />
              <mxPoint x="-940" y="260" />
              <mxPoint x="-1014" y="310" />
              <mxPoint x="-784" y="800" />
              <mxPoint x="-694" y="820" />
              <mxPoint x="-766" y="820" />
            </Array>
          </mxGeometry>
        </mxCell>
        <mxCell id="l8RalJSKUeOPsh2uQrL3-68" value="" style="edgeStyle=entityRelationEdgeStyle;fontSize=12;html=1;endArrow=ERoneToMany;rounded=0;exitX=1;exitY=0.25;exitDx=0;exitDy=0;" edge="1" parent="1" source="l8RalJSKUeOPsh2uQrL3-15" target="l8RalJSKUeOPsh2uQrL3-41">
          <mxGeometry width="100" height="100" relative="1" as="geometry">
            <mxPoint x="-40" y="560" as="sourcePoint" />
            <mxPoint x="76" y="380" as="targetPoint" />
          </mxGeometry>
        </mxCell>
        <mxCell id="l8RalJSKUeOPsh2uQrL3-69" value="&lt;div style=&quot;font-size: 20px;&quot;&gt;&lt;br&gt;&lt;/div&gt;&lt;div style=&quot;font-size: 20px;&quot;&gt;&lt;br&gt;&lt;/div&gt;&lt;div style=&quot;font-size: 20px;&quot;&gt;CREATE DATABASE Assunzione_Personale;&lt;/div&gt;&lt;div style=&quot;font-size: 20px;&quot;&gt;&lt;br&gt;&lt;/div&gt;&lt;div style=&quot;font-size: 20px;&quot;&gt;USE Assunzione_Personale;&lt;/div&gt;&lt;div style=&quot;font-size: 20px;&quot;&gt;&lt;br&gt;&lt;/div&gt;&lt;div style=&quot;font-size: 20px;&quot;&gt;CREATE TABLE Dipendente (&lt;/div&gt;&lt;div style=&quot;font-size: 20px;&quot;&gt;&amp;nbsp; &amp;nbsp; ID_Dipendente INT PRIMARY KEY,&lt;/div&gt;&lt;div style=&quot;font-size: 20px;&quot;&gt;&amp;nbsp; &amp;nbsp; ID_Candidato INT UNIQUE,&lt;/div&gt;&lt;div style=&quot;font-size: 20px;&quot;&gt;&amp;nbsp; &amp;nbsp; Matricola VARCHAR(50),&lt;/div&gt;&lt;div style=&quot;font-size: 20px;&quot;&gt;&amp;nbsp; &amp;nbsp; Stipendio DECIMAL(10,2),&lt;br&gt;&lt;/div&gt;&lt;div style=&quot;font-size: 20px;&quot;&gt;&amp;nbsp; &amp;nbsp; FOREIGN KEY (ID_Candidato) REFERENCES Candidato(ID_Candidato)&lt;/div&gt;&lt;div&gt;&lt;font style=&quot;font-size: 20px;&quot;&gt;&lt;span style=&quot;background-color: transparent;&quot;&gt;);&lt;/span&gt;&lt;/font&gt;&lt;/div&gt;&lt;div&gt;&lt;font style=&quot;font-size: 20px;&quot;&gt;&lt;br&gt;&lt;/font&gt;&lt;/div&gt;&lt;div&gt;&lt;font style=&quot;font-size: 20px;&quot;&gt;CREATE TABLE Candidato (&lt;/font&gt;&lt;/div&gt;&lt;div&gt;&lt;font style=&quot;font-size: 20px;&quot;&gt;&amp;nbsp; &amp;nbsp; ID_Candidato INT PRIMARY KEY,&lt;/font&gt;&lt;/div&gt;&lt;div&gt;&lt;font style=&quot;font-size: 20px;&quot;&gt;&amp;nbsp; &amp;nbsp; Nome VARCHAR(50),&lt;/font&gt;&lt;/div&gt;&lt;div&gt;&lt;font style=&quot;font-size: 20px;&quot;&gt;&amp;nbsp; &amp;nbsp; Cognome VARCHAR(50),&lt;/font&gt;&lt;/div&gt;&lt;div&gt;&lt;font style=&quot;font-size: 20px;&quot;&gt;&amp;nbsp; &amp;nbsp; Email VARCHAR(100),&lt;/font&gt;&lt;/div&gt;&lt;div&gt;&lt;font style=&quot;font-size: 20px;&quot;&gt;&amp;nbsp; &amp;nbsp; Telefono VARCHAR(20),&lt;/font&gt;&lt;/div&gt;&lt;div&gt;&lt;font style=&quot;font-size: 20px;&quot;&gt;&amp;nbsp; &amp;nbsp; CV TEXT&lt;/font&gt;&lt;/div&gt;&lt;div&gt;&lt;font style=&quot;font-size: 20px;&quot;&gt;);&lt;/font&gt;&lt;/div&gt;&lt;div&gt;&lt;font style=&quot;font-size: 20px;&quot;&gt;&lt;br&gt;&lt;/font&gt;&lt;/div&gt;&lt;div&gt;&lt;font style=&quot;font-size: 20px;&quot;&gt;&lt;div&gt;CREATE TABLE Assunzione (&lt;/div&gt;&lt;div&gt;&amp;nbsp; &amp;nbsp; ID_Assunzione INT PRIMARY KEY,&lt;/div&gt;&lt;div&gt;&amp;nbsp; &amp;nbsp; ID_Candidato INT UNIQUE,&lt;/div&gt;&lt;div&gt;&amp;nbsp; &amp;nbsp; ID_Posizione INT,&lt;/div&gt;&lt;div&gt;&amp;nbsp; &amp;nbsp; Data_Assunzione DATE,&lt;/div&gt;&lt;div&gt;&amp;nbsp; &amp;nbsp; Tipo_Contratto VARCHAR(30),&lt;/div&gt;&lt;div&gt;&amp;nbsp; &amp;nbsp; FOREIGN KEY (ID_Candidato) REFERENCES Candidato(ID_Candidato),&lt;/div&gt;&lt;div&gt;&amp;nbsp; &amp;nbsp; FOREIGN KEY (ID_Posizione) REFERENCES Posizione_Lavorativa(ID_Posizione)&lt;/div&gt;&lt;div&gt;);&lt;/div&gt;&lt;/font&gt;&lt;/div&gt;&lt;div&gt;&lt;font style=&quot;font-size: 20px;&quot;&gt;&lt;br&gt;&lt;/font&gt;&lt;/div&gt;&lt;div&gt;&lt;font style=&quot;font-size: 20px;&quot;&gt;CREATE TABLE Posizione_Lavorativa (&lt;/font&gt;&lt;/div&gt;&lt;div&gt;&lt;font style=&quot;font-size: 20px;&quot;&gt;&amp;nbsp; &amp;nbsp; ID_Posizione INT PRIMARY KEY,&lt;/font&gt;&lt;/div&gt;&lt;div&gt;&lt;font style=&quot;font-size: 20px;&quot;&gt;&amp;nbsp; &amp;nbsp; Titolo VARCHAR(100),&lt;/font&gt;&lt;/div&gt;&lt;div&gt;&lt;font style=&quot;font-size: 20px;&quot;&gt;&amp;nbsp; &amp;nbsp; Dipartimento VARCHAR(50),&lt;/font&gt;&lt;/div&gt;&lt;div&gt;&lt;font style=&quot;font-size: 20px;&quot;&gt;&amp;nbsp; &amp;nbsp; Data_Apertura DATE,&lt;/font&gt;&lt;/div&gt;&lt;div&gt;&lt;font style=&quot;font-size: 20px;&quot;&gt;&amp;nbsp; &amp;nbsp;&lt;/font&gt;&lt;span style=&quot;font-size: 20px; background-color: transparent;&quot;&gt;);&lt;/span&gt;&lt;/div&gt;&lt;div&gt;&lt;span style=&quot;font-size: 20px; background-color: transparent;&quot;&gt;&lt;br&gt;&lt;/span&gt;&lt;/div&gt;&lt;div&gt;&lt;span style=&quot;font-size: 20px;&quot;&gt;CREATE TABLE Colloquio (&lt;/span&gt;&lt;/div&gt;&lt;div&gt;&lt;span style=&quot;font-size: 20px;&quot;&gt;&amp;nbsp; &amp;nbsp; ID_Colloquio INT PRIMARY KEY,&lt;/span&gt;&lt;/div&gt;&lt;div&gt;&lt;span style=&quot;font-size: 20px;&quot;&gt;&amp;nbsp; &amp;nbsp; ID_Candidato INT,&lt;/span&gt;&lt;/div&gt;&lt;div&gt;&lt;span style=&quot;font-size: 20px;&quot;&gt;&amp;nbsp; &amp;nbsp; ID_Posizione INT,&lt;/span&gt;&lt;/div&gt;&lt;div&gt;&lt;span style=&quot;font-size: 20px;&quot;&gt;&amp;nbsp; &amp;nbsp; Data_Colloquio DATE,&lt;/span&gt;&lt;/div&gt;&lt;div&gt;&lt;span style=&quot;font-size: 20px;&quot;&gt;&amp;nbsp; &amp;nbsp; Esito VARCHAR(30), -- Positivo, Negativo, In attesa&lt;/span&gt;&lt;/div&gt;&lt;div&gt;&lt;span style=&quot;font-size: 20px;&quot;&gt;&amp;nbsp; &amp;nbsp; FOREIGN KEY (ID_Candidato) REFERENCES Candidato(ID_Candidato),&lt;/span&gt;&lt;/div&gt;&lt;div&gt;&lt;span style=&quot;font-size: 20px;&quot;&gt;&amp;nbsp; &amp;nbsp; FOREIGN KEY (ID_Posizione) REFERENCES Posizione_Lavorativa(ID_Posizione)&lt;/span&gt;&lt;/div&gt;&lt;div&gt;&lt;span style=&quot;background-color: transparent; font-size: 20px;&quot;&gt;);&lt;/span&gt;&lt;span style=&quot;font-size: 20px; background-color: transparent;&quot;&gt;&amp;nbsp;&lt;/span&gt;&lt;/div&gt;&lt;div&gt;&lt;br&gt;&lt;/div&gt;&lt;div&gt;&lt;span style=&quot;background-color: transparent; font-size: 20px;&quot;&gt;&lt;div style=&quot;&quot;&gt;&lt;br&gt;&lt;/div&gt;&lt;div style=&quot;&quot;&gt;&lt;br&gt;&lt;/div&gt;&lt;/span&gt;&lt;/div&gt;" style="whiteSpace=wrap;html=1;aspect=fixed;" vertex="1" parent="1">
          <mxGeometry x="-1160" y="960" width="1160" height="1160" as="geometry" />
        </mxCell>
        <mxCell id="l8RalJSKUeOPsh2uQrL3-70" value="&lt;span style=&quot;color: rgb(0, 0, 0); font-family: Helvetica; font-style: normal; font-variant-ligatures: normal; font-variant-caps: normal; letter-spacing: normal; orphans: 2; text-align: center; text-indent: 0px; text-transform: none; widows: 2; word-spacing: 0px; -webkit-text-stroke-width: 0px; white-space: normal; background-color: rgb(236, 236, 236); text-decoration-thickness: initial; text-decoration-style: initial; text-decoration-color: initial; float: none; display: inline !important;&quot;&gt;1. CREAZIONE DELLE TABELLE (SQL - DDL)&lt;/span&gt;" style="text;whiteSpace=wrap;html=1;fontSize=20;container=1;fontStyle=1;fillColor=#e1d5e7;strokeColor=#9673a6;" vertex="1" parent="1">
          <mxGeometry x="-772.5" y="850" width="450" height="40" as="geometry" />
        </mxCell>
        <mxCell id="l8RalJSKUeOPsh2uQrL3-71" value="&lt;span style=&quot;color: rgb(0, 0, 0); font-family: Helvetica; font-style: normal; font-variant-ligatures: normal; font-variant-caps: normal; letter-spacing: normal; orphans: 2; text-align: center; text-indent: 0px; text-transform: none; widows: 2; word-spacing: 0px; -webkit-text-stroke-width: 0px; white-space: normal; background-color: rgb(236, 236, 236); text-decoration-thickness: initial; text-decoration-style: initial; text-decoration-color: initial; float: none; display: inline !important;&quot;&gt;2. POPOLAMENTO DELLE TABELLE (SQL-DML)&lt;/span&gt;" style="text;whiteSpace=wrap;html=1;fontSize=20;container=1;fontStyle=1;fillColor=#e1d5e7;strokeColor=#9673a6;" vertex="1" parent="1">
          <mxGeometry x="-820.5" y="2500" width="460" height="40" as="geometry" />
        </mxCell>
        <mxCell id="l8RalJSKUeOPsh2uQrL3-72" value="&lt;div style=&quot;&quot;&gt;&lt;div style=&quot;font-size: 20px;&quot;&gt;INSERT INTO Candidato VALUES&lt;/div&gt;&lt;div style=&quot;font-size: 20px;&quot;&gt;(1, &#39;Mario&#39;, &#39;Rossi&#39;, &#39;mario.rossi@email.com&#39;, &#39;3331234567&#39;, &#39;CV_Mario.pdf&#39;),&lt;/div&gt;&lt;div style=&quot;font-size: 20px;&quot;&gt;(2, &#39;Laura&#39;, &#39;Bianchi&#39;, &#39;laura.bianchi@email.com&#39;, &#39;3332345678&#39;, &#39;CV_Laura.pdf&#39;),&lt;/div&gt;&lt;div style=&quot;font-size: 20px;&quot;&gt;(3, &#39;Giulia&#39;, &#39;Verdi&#39;, &#39;giulia.verdi@email.com&#39;, &#39;3333456789&#39;, &#39;CV_Giulia.pdf&#39;),&lt;/div&gt;&lt;div style=&quot;font-size: 20px;&quot;&gt;(4, &#39;Marco&#39;, &#39;Neri&#39;, &#39;marco.neri@email.com&#39;, &#39;3334567890&#39;, &#39;CV_Marco.pdf&#39;),&lt;/div&gt;&lt;div style=&quot;font-size: 20px;&quot;&gt;(5, &#39;Anna&#39;, &#39;Gialli&#39;, &#39;anna.gialli@email.com&#39;, &#39;3335678901&#39;, &#39;CV_Anna.pdf&#39;);&lt;/div&gt;&lt;div style=&quot;font-size: 20px;&quot;&gt;&lt;br&gt;&lt;/div&gt;&lt;div style=&quot;&quot;&gt;&lt;div style=&quot;&quot;&gt;&lt;span style=&quot;font-size: 20px;&quot;&gt;INSERT INTO Posizione_Lavorativa VALUES&lt;/span&gt;&lt;/div&gt;&lt;div style=&quot;&quot;&gt;&lt;span style=&quot;font-size: 20px;&quot;&gt;(101, &#39;Analista Dati&#39;, &#39;IT&#39;, &#39;2025-01-15&#39;),&lt;/span&gt;&lt;/div&gt;&lt;div style=&quot;&quot;&gt;&lt;span style=&quot;font-size: 20px;&quot;&gt;(102, &#39;Responsabile HR&#39;, &#39;Risorse Umane&#39;, &#39;2025-02-01&#39;),&lt;/span&gt;&lt;/div&gt;&lt;div style=&quot;&quot;&gt;&lt;span style=&quot;font-size: 20px;&quot;&gt;(103, &#39;Sviluppatore Software&#39;, &#39;IT&#39;, &#39;2025-03-10&#39;),&lt;/span&gt;&lt;/div&gt;&lt;div style=&quot;&quot;&gt;&lt;span style=&quot;font-size: 20px;&quot;&gt;(104, &#39;Marketing Manager&#39;, &#39;Marketing&#39;, &#39;2025-04-05&#39;),&lt;/span&gt;&lt;/div&gt;&lt;div style=&quot;&quot;&gt;&lt;span style=&quot;font-size: 20px;&quot;&gt;(105, &#39;Contabile&#39;, &#39;Finanza&#39;, &#39;2025-05-01&#39;);&lt;/span&gt;&lt;/div&gt;&lt;div style=&quot;&quot;&gt;&lt;span style=&quot;font-size: 20px;&quot;&gt;&lt;br&gt;&lt;/span&gt;&lt;/div&gt;&lt;div style=&quot;&quot;&gt;&lt;div style=&quot;font-size: 20px;&quot;&gt;INSERT INTO Colloquio VALUES&lt;/div&gt;&lt;div style=&quot;font-size: 20px;&quot;&gt;(1001, 1, 101, &#39;2025-03-10&#39;, &#39;Positivo&#39;),&lt;/div&gt;&lt;div style=&quot;font-size: 20px;&quot;&gt;(1002, 2, 105, &#39;2025-03-12&#39;, &#39;Negativo&#39;),&lt;/div&gt;&lt;div style=&quot;font-size: 20px;&quot;&gt;(1003, 3, 102, &#39;2025-02-10&#39;, &#39;Positivo&#39;),&lt;/div&gt;&lt;div style=&quot;font-size: 20px;&quot;&gt;(1004, 4, 103, &#39;2025-03-15&#39;, &#39;In attesa&#39;),&lt;/div&gt;&lt;div style=&quot;font-size: 20px;&quot;&gt;(1005, 5, 104, &#39;2025-04-10&#39;, &#39;Positivo&#39;);&lt;/div&gt;&lt;div style=&quot;font-size: 20px;&quot;&gt;&lt;br&gt;&lt;/div&gt;&lt;div style=&quot;&quot;&gt;&lt;div style=&quot;&quot;&gt;&lt;span style=&quot;font-size: 20px;&quot;&gt;INSERT INTO Assunzione VALUES&lt;/span&gt;&lt;/div&gt;&lt;div style=&quot;&quot;&gt;&lt;span style=&quot;font-size: 20px;&quot;&gt;(5001, 1, 101, &#39;2025-03-20&#39;, &#39;Indeterminato&#39;),&lt;/span&gt;&lt;/div&gt;&lt;div style=&quot;&quot;&gt;&lt;span style=&quot;font-size: 20px;&quot;&gt;(5002, 3, 102, &#39;2025-02-20&#39;, &#39;Determinato&#39;),&lt;/span&gt;&lt;/div&gt;&lt;div style=&quot;&quot;&gt;&lt;span style=&quot;font-size: 20px;&quot;&gt;(5003, 4, 103, &#39;2025-03-25&#39;, &#39;Indeterminato&#39;),&lt;/span&gt;&lt;/div&gt;&lt;div style=&quot;&quot;&gt;&lt;span style=&quot;font-size: 20px;&quot;&gt;(5004, 5, 104, &#39;2025-04-15&#39;, &#39;Determinato&#39;)&lt;/span&gt;&lt;span style=&quot;font-size: 20px; background-color: transparent;&quot;&gt;;&lt;/span&gt;&lt;/div&gt;&lt;div style=&quot;&quot;&gt;&lt;span style=&quot;font-size: 20px;&quot;&gt;&lt;br&gt;&lt;/span&gt;&lt;/div&gt;&lt;div style=&quot;&quot;&gt;&lt;div style=&quot;font-size: 20px;&quot;&gt;INSERT INTO Dipendente VALUES&lt;/div&gt;&lt;div style=&quot;font-size: 20px;&quot;&gt;(9001, 1, &#39;MR012234578&#39;, 32000.00),&lt;/div&gt;&lt;div style=&quot;font-size: 20px;&quot;&gt;(9002, 3, &#39;GV012234577&#39;, 28000.00),&lt;/div&gt;&lt;div style=&quot;font-size: 20px;&quot;&gt;(9003, 4, &#39;MN012234579&#39;,&amp;nbsp;35000.00),&lt;/div&gt;&lt;div style=&quot;&quot;&gt;&lt;span style=&quot;font-size: 20px;&quot;&gt;(9004, 5,&amp;nbsp;&lt;/span&gt;&lt;span style=&quot;font-size: 20px; background-color: transparent;&quot;&gt;&#39;AG012234580&#39;,&amp;nbsp;&lt;/span&gt;&lt;span style=&quot;background-color: transparent; font-size: 20px;&quot;&gt;30000.00&lt;/span&gt;&lt;span style=&quot;font-size: 20px; background-color: transparent;&quot;&gt;)&lt;/span&gt;&lt;span style=&quot;font-size: 20px; background-color: transparent;&quot;&gt;;&lt;/span&gt;&lt;/div&gt;&lt;span style=&quot;font-size: 20px;&quot;&gt;&lt;div&gt;&lt;br&gt;&lt;/div&gt;&lt;/span&gt;&lt;/div&gt;&lt;/div&gt;&lt;div style=&quot;font-size: 20px;&quot;&gt;&lt;br&gt;&lt;/div&gt;&lt;div style=&quot;font-size: 20px;&quot;&gt;&lt;br&gt;&lt;/div&gt;&lt;div style=&quot;font-size: 20px;&quot;&gt;&lt;br&gt;&lt;/div&gt;&lt;/div&gt;&lt;/div&gt;&lt;div style=&quot;font-size: 20px;&quot;&gt;&lt;br&gt;&lt;/div&gt;&lt;/div&gt;" style="whiteSpace=wrap;html=1;aspect=fixed;" vertex="1" parent="1">
          <mxGeometry x="-1126.5" y="2560" width="1090" height="1090" as="geometry" />
        </mxCell>
        <mxCell id="l8RalJSKUeOPsh2uQrL3-73" value="ID POSIZIONE" style="shape=partialRectangle;html=1;whiteSpace=wrap;connectable=0;strokeColor=#d79b00;overflow=hidden;fillColor=#ffe6cc;top=0;left=0;bottom=0;right=0;pointerEvents=1;fontSize=12;align=left;spacingLeft=5;" vertex="1" parent="1">
          <mxGeometry x="-746.5" y="597.5" width="150" height="35" as="geometry">
            <mxRectangle width="150" height="35" as="alternateBounds" />
          </mxGeometry>
        </mxCell>
        <mxCell id="l8RalJSKUeOPsh2uQrL3-74" value="(FK)" style="shape=partialRectangle;html=1;whiteSpace=wrap;connectable=0;strokeColor=#d79b00;overflow=hidden;fillColor=#ffe6cc;top=0;left=0;bottom=0;right=0;pointerEvents=1;fontSize=12;align=left;spacingLeft=5;fontStyle=1;labelBorderColor=none;" vertex="1" parent="1">
          <mxGeometry x="-626.5" y="600" width="50" height="35" as="geometry">
            <mxRectangle width="150" height="35" as="alternateBounds" />
          </mxGeometry>
        </mxCell>
        <mxCell id="l8RalJSKUeOPsh2uQrL3-75" value="ESITO" style="shape=partialRectangle;html=1;whiteSpace=wrap;connectable=0;strokeColor=#6c8ebf;overflow=hidden;fillColor=#dae8fc;top=0;left=0;bottom=0;right=0;pointerEvents=1;fontSize=12;align=left;spacingLeft=5;" vertex="1" parent="1">
          <mxGeometry x="-746.5" y="667.5" width="150" height="35" as="geometry">
            <mxRectangle width="150" height="35" as="alternateBounds" />
          </mxGeometry>
        </mxCell>
        <mxCell id="l8RalJSKUeOPsh2uQrL3-76" value="ID CANDIDATO" style="shape=partialRectangle;html=1;whiteSpace=wrap;connectable=0;strokeColor=#d79b00;overflow=hidden;fillColor=#ffe6cc;top=0;left=0;bottom=0;right=0;pointerEvents=1;fontSize=12;align=left;spacingLeft=5;" vertex="1" parent="1">
          <mxGeometry x="-746.5" y="562" width="150" height="35" as="geometry">
            <mxRectangle width="150" height="35" as="alternateBounds" />
          </mxGeometry>
        </mxCell>
        <mxCell id="l8RalJSKUeOPsh2uQrL3-77" value="DATA COLLOQUIO" style="shape=partialRectangle;html=1;whiteSpace=wrap;connectable=0;strokeColor=#6c8ebf;overflow=hidden;fillColor=#dae8fc;top=0;left=0;bottom=0;right=0;pointerEvents=1;fontSize=12;align=left;spacingLeft=5;" vertex="1" parent="1">
          <mxGeometry x="-746.5" y="635" width="150" height="35" as="geometry">
            <mxRectangle width="150" height="35" as="alternateBounds" />
          </mxGeometry>
        </mxCell>
        <mxCell id="l8RalJSKUeOPsh2uQrL3-78" value="(FK)" style="shape=partialRectangle;html=1;whiteSpace=wrap;connectable=0;strokeColor=#d79b00;overflow=hidden;fillColor=#ffe6cc;top=0;left=0;bottom=0;right=0;pointerEvents=1;fontSize=12;align=left;spacingLeft=5;fontStyle=1;labelBorderColor=none;" vertex="1" parent="1">
          <mxGeometry x="-626.5" y="562" width="50" height="35" as="geometry">
            <mxRectangle width="150" height="35" as="alternateBounds" />
          </mxGeometry>
        </mxCell>
        <mxCell id="l8RalJSKUeOPsh2uQrL3-79" value="ID CANDIDATO" style="shape=partialRectangle;html=1;whiteSpace=wrap;connectable=0;strokeColor=#d79b00;overflow=hidden;fillColor=#ffe6cc;top=0;left=0;bottom=0;right=0;pointerEvents=1;fontSize=12;align=left;spacingLeft=5;" vertex="1" parent="1">
          <mxGeometry x="-232" y="220" width="150" height="35" as="geometry">
            <mxRectangle width="150" height="35" as="alternateBounds" />
          </mxGeometry>
        </mxCell>
        <mxCell id="l8RalJSKUeOPsh2uQrL3-80" value="DATA ASSUNZIONE" style="shape=partialRectangle;html=1;whiteSpace=wrap;connectable=0;strokeColor=#6c8ebf;overflow=hidden;fillColor=#dae8fc;top=0;left=0;bottom=0;right=0;pointerEvents=1;fontSize=12;align=left;spacingLeft=5;" vertex="1" parent="1">
          <mxGeometry x="-234" y="292.5" width="150" height="35" as="geometry">
            <mxRectangle width="150" height="35" as="alternateBounds" />
          </mxGeometry>
        </mxCell>
        <mxCell id="l8RalJSKUeOPsh2uQrL3-81" value="(FK)" style="shape=partialRectangle;html=1;whiteSpace=wrap;connectable=0;strokeColor=#d79b00;overflow=hidden;fillColor=#ffe6cc;top=0;left=0;bottom=0;right=0;pointerEvents=1;fontSize=12;align=left;spacingLeft=5;fontStyle=1;labelBorderColor=none;" vertex="1" parent="1">
          <mxGeometry x="-114" y="220" width="50" height="35" as="geometry">
            <mxRectangle width="150" height="35" as="alternateBounds" />
          </mxGeometry>
        </mxCell>
        <mxCell id="l8RalJSKUeOPsh2uQrL3-82" value="ID POSIZIONE" style="shape=partialRectangle;html=1;whiteSpace=wrap;connectable=0;strokeColor=#d79b00;overflow=hidden;fillColor=#ffe6cc;top=0;left=0;bottom=0;right=0;pointerEvents=1;fontSize=12;align=left;spacingLeft=5;" vertex="1" parent="1">
          <mxGeometry x="-234" y="257.5" width="150" height="35" as="geometry">
            <mxRectangle width="150" height="35" as="alternateBounds" />
          </mxGeometry>
        </mxCell>
        <mxCell id="l8RalJSKUeOPsh2uQrL3-83" value="TIPO DI CONTRATTO" style="shape=partialRectangle;html=1;whiteSpace=wrap;connectable=0;strokeColor=#6c8ebf;overflow=hidden;fillColor=#dae8fc;top=0;left=0;bottom=0;right=0;pointerEvents=1;fontSize=12;align=left;spacingLeft=5;" vertex="1" parent="1">
          <mxGeometry x="-234" y="327.5" width="150" height="35" as="geometry">
            <mxRectangle width="150" height="35" as="alternateBounds" />
          </mxGeometry>
        </mxCell>
        <mxCell id="l8RalJSKUeOPsh2uQrL3-84" value="(FK)" style="shape=partialRectangle;html=1;whiteSpace=wrap;connectable=0;strokeColor=#d79b00;overflow=hidden;fillColor=#ffe6cc;top=0;left=0;bottom=0;right=0;pointerEvents=1;fontSize=12;align=left;spacingLeft=5;fontStyle=1;labelBorderColor=none;" vertex="1" parent="1">
          <mxGeometry x="-114" y="257.5" width="50" height="35" as="geometry">
            <mxRectangle width="150" height="35" as="alternateBounds" />
          </mxGeometry>
        </mxCell>
        <mxCell id="l8RalJSKUeOPsh2uQrL3-85" value="ID CANDIDATO" style="shape=partialRectangle;html=1;whiteSpace=wrap;connectable=0;strokeColor=#d79b00;overflow=hidden;fillColor=#ffe6cc;top=0;left=0;bottom=0;right=0;pointerEvents=1;fontSize=12;align=left;spacingLeft=5;" vertex="1" parent="1">
          <mxGeometry x="-1134" y="235" width="150" height="35" as="geometry">
            <mxRectangle width="150" height="35" as="alternateBounds" />
          </mxGeometry>
        </mxCell>
        <mxCell id="l8RalJSKUeOPsh2uQrL3-86" value="STIPENDIO" style="shape=partialRectangle;html=1;whiteSpace=wrap;connectable=0;strokeColor=#6c8ebf;overflow=hidden;fillColor=#dae8fc;top=0;left=0;bottom=0;right=0;pointerEvents=1;fontSize=12;align=left;spacingLeft=5;" vertex="1" parent="1">
          <mxGeometry x="-1134" y="305" width="150" height="35" as="geometry">
            <mxRectangle width="150" height="35" as="alternateBounds" />
          </mxGeometry>
        </mxCell>
        <mxCell id="l8RalJSKUeOPsh2uQrL3-87" value="MATRICOLA" style="shape=partialRectangle;html=1;whiteSpace=wrap;connectable=0;strokeColor=#6c8ebf;overflow=hidden;fillColor=#dae8fc;top=0;left=0;bottom=0;right=0;pointerEvents=1;fontSize=12;align=left;spacingLeft=5;" vertex="1" parent="1">
          <mxGeometry x="-1134" y="272.5" width="150" height="35" as="geometry">
            <mxRectangle width="150" height="35" as="alternateBounds" />
          </mxGeometry>
        </mxCell>
        <mxCell id="l8RalJSKUeOPsh2uQrL3-88" value="(FK)" style="shape=partialRectangle;html=1;whiteSpace=wrap;connectable=0;strokeColor=#d79b00;overflow=hidden;fillColor=#ffe6cc;top=0;left=0;bottom=0;right=0;pointerEvents=1;fontSize=12;align=left;spacingLeft=5;fontStyle=1;labelBorderColor=none;" vertex="1" parent="1">
          <mxGeometry x="-1014" y="235" width="50" height="35" as="geometry">
            <mxRectangle width="150" height="35" as="alternateBounds" />
          </mxGeometry>
        </mxCell>
      </root>
    </mxGraphModel>
  </diagram>
</mxfile>
